<svg width="24" height="24" viewBox="0 0 24 24" fill="none" xmlns="http://www.w3.org/2000/svg">
<rect width="24" height="24" fill="#2B2D42"/>
<g clip-path="url(#clip0_641_218)">
<path d="M9.88335 0.980194C6.93557 0.980194 4.01632 0.980194 1.01367 0.980194C1.01367 4.04974 1.01367 7.17869 1.01367 10.312C2.10983 5.36094 5.03183 2.24189 9.88335 0.980194Z" fill="#009ADE"/>
<path d="M1.01318 13.799C1.01318 16.9775 1.01318 19.8936 1.01318 23.0082C4.07069 23.0082 7.06071 23.0082 10.0787 23.0082C5.11528 21.8054 2.12141 18.892 1.01318 13.799Z" fill="#ABC511"/>
<path d="M22.9869 13.7083V23.0083H13.9351C18.8985 21.8054 21.8792 18.8013 22.9869 13.7083Z" fill="#DF057E"/>
<path d="M14.115 0.980194H22.9863V10.2752C21.8902 5.32409 18.966 2.24189 14.115 0.980194Z" fill="#0C927A"/>
<path d="M11.2847 8.27321C11.8701 8.57901 12.2371 9.19116 12.2371 9.93806C12.2371 11.0469 11.3686 11.8867 10.222 11.8867H7.35925V5.04361H10.1649C11.2666 5.04361 12.0703 5.78391 12.0703 6.79481C12.0703 7.40641 11.7593 7.95641 11.2847 8.27321ZM10.4458 7.10721C10.4458 6.75191 10.2253 6.51156 9.86703 6.51156H9.00239V7.70286H9.86703C10.2247 7.70286 10.4458 7.46196 10.4458 7.10721ZM10.5446 9.71366C10.5446 9.35011 10.3021 9.09436 9.93177 9.09436H9.00239V10.339H9.93177C10.3021 10.339 10.5446 10.0833 10.5446 9.71421V9.71366Z" fill="white"/>
<path d="M13.799 5.04361H15.5326V11.8867H13.799V5.04361Z" fill="white"/>
<path d="M12.0966 17.8933H11.5633V19.0615H10.0469V17.8933H7.21436V17.5754L9.10493 12.5605H10.6724L9.21081 16.4369H10.1545L10.5006 15.0052H11.5639V16.4369H12.0971V17.8933H12.0966Z" fill="white"/>
<path d="M16.806 17.4258V19.0609H12.7566V12.2178H16.7314V13.8475H14.4606V14.8551H16.501V16.4017H14.4606V17.4263H16.8066L16.806 17.4258Z" fill="white"/>
</g>
<defs>
<clipPath id="clip0_641_218">
<rect width="22" height="22" fill="white" transform="translate(1 1)"/>
</clipPath>
</defs>
</svg>
